<svg width="902" height="455" viewBox="0 0 902 455" fill="none" xmlns="http://www.w3.org/2000/svg">
<path d="M722.2 347V340.6L758.2 324.6V269.8H648.2V261.8L784.2 83H792.2V243H839.8V269.8H792.2V324.6L824.2 340.6V347H722.2ZM686.2 243H758.2V145L686.2 243Z" fill="#D6EF0E"/>
<path d="M77.2 347V340.6L113.2 324.6V269.8H3.2V261.8L139.2 83H147.2V243H194.8V269.8H147.2V324.6L179.2 340.6V347H77.2ZM41.2 243H113.2V145L41.2 243Z" fill="#D6EF0E"/>
<path d="M404.691 280.723C423.352 259.305 462.126 196.192 503.965 207.695C549.275 220.153 522.685 276.832 503.837 296.278C483.244 317.525 450.376 338.859 417.451 334.87C385.521 331.001 367.34 294.296 372.025 267.423C374.829 251.34 396.994 221.955 419.237 234.769C441.402 247.537 439.294 281.583 438.378 299.484C437.433 317.937 432.594 358.185 415.282 374.53C375.775 411.831 328.848 269.997 325.45 259.586C317.953 236.614 282.245 152.055 331.83 143.692C374.679 136.465 471.643 168.537 444.503 222.775C430.024 251.711 382.101 298.055 343.697 272.648C297.772 242.264 311.089 165.592 349.056 135.142C382.332 108.456 423.409 131.524 452.669 149.273C467.747 158.419 527.577 191.64 505.369 217.076C478.618 247.714 416.109 255.393 377.767 246.168C334.086 235.658 312.959 193.929 346.249 160.554C374.173 132.558 419.524 125.659 458.028 135.142C513.289 148.752 536.732 192.183 534.334 242.487C531.997 291.531 515.747 344.207 485.08 384.505C452.376 427.478 399.63 445.794 367.686 391.036C333.937 333.181 325.69 258.255 323.026 193.802C321.747 162.868 314.089 71.1437 375.087 78.3829C437.887 85.8358 504.537 137.82 528.209 191.19C550.785 242.087 533.844 319.094 459.304 314.921C408.177 312.058 386.912 268.972 396.524 226.932C405.89 185.968 457.781 115.061 513.152 129.561C547.51 138.559 570.288 191.773 563.938 221.826C554.625 265.898 485.171 248.779 457.263 237.381C415.75 220.427 384.103 191.687 373.301 149.629C363.062 109.765 372.671 52.5428 418.727 34.6851C474.692 12.985 499.853 71.5003 506.262 111.156C517.491 180.641 513.251 267.243 480.231 331.782C470.707 350.398 446.969 383.18 418.982 376.193C397.091 370.727 388.55 350.475 381.978 332.851C370.296 301.525 367.092 270.492 366.41 237.5C365.722 204.187 366.881 160.754 384.785 130.155C399.688 104.684 431.231 127.504 446.544 138.942C464.597 152.428 561.797 231.966 513.535 254.599C481.874 269.447 428.406 273.006 402.139 246.524C362.456 206.519 370.45 127.801 392.569 82.4202C404.904 57.1116 429.926 35.8776 459.304 57.2465C511.437 95.1664 535.558 175.793 543.266 233.462C548.418 272.005 549.373 340.379 499.371 357.194C456.452 371.627 406.887 345.375 384.53 312.071C369.692 289.968 360.772 258.74 369.09 233.106C379.784 200.153 420.067 177.772 455.987 177.772C508.544 177.772 518.413 242.675 523.233 278.823C527.453 310.476 537.85 393.694 489.036 406.235C450.704 416.083 426.387 365.794 415.92 342.469C401.638 310.645 386.465 255.77 381.212 221.351C379.596 210.761 374.405 174.709 386.827 161.266C398.89 148.211 431.996 159.379 443.737 164.591C480.782 181.035 502.378 212.762 508.303 250.087C512.264 275.033 512.575 316.659 491.97 337.007C452.385 376.1 400.207 274.545 392.951 256.261C375.362 211.934 366.134 148.43 406.988 111.869C424.916 95.8239 451.5 88.0989 461.601 115.193C472.378 144.099 494.839 386.215 431.742 363.606C407.793 355.024 388.42 322.153 378.405 305.184C358.419 271.321 346.326 241.695 335.786 204.608C329.771 183.444 313.92 136.987 351.481 133.718C374.807 131.687 399.041 136.869 420.769 144.404C431.493 148.124 453.243 156.189 458.284 167.916C464.224 181.737 425.024 209.702 415 212.5" stroke="#D6EF0E" stroke-width="3" stroke-linecap="round"/>
</svg>
